<?xml version="1.0" encoding="UTF-8"?>
<svg width="115" height="72" viewBox="0 0 115 72" fill="none" xmlns="http://www.w3.org/2000/svg">
    <!-- First "3" -->
    <path d="M1.66968 53.7752H1.03445L1.18367 54.3927C3.75564 65.0353 13.5102 70.5241 26.9711 70.5241C37.5945 70.5241 44.411 67.7915 48.5695 63.6552C52.7275 59.5194 54.1494 54.0586 54.1494 48.7675C54.1494 41.8003 51.7118 36.379 47.2995 32.7095C42.9463 29.0891 36.7294 27.2221 29.1893 27.1836L48.781 12.8541L48.9858 12.7043V12.4505V3.24219V2.74219H48.4858H6.14475H5.64475V3.24219V11.5899V12.0899H6.14475H36.9136L17.6354 26.508L17.4349 26.658V26.9084V34.998V35.498H17.9349H23.8729C31.5471 35.498 36.7791 36.6383 40.0837 38.8759C43.3435 41.0832 44.8017 44.4119 44.8017 49.0256C44.8017 52.5635 43.9394 55.7366 41.4249 58.0372C38.8995 60.3479 34.6149 61.8648 27.5735 61.8648C18.8268 61.8648 12.8668 59.5458 10.9184 54.1066L10.7997 53.7752H10.4477H1.66968Z" fill="#D0535B" stroke="#D0535B"/>
    <!-- "0" with adjusted position -->
    <path transform="translate(5, 0)" d="M58.5747 35.9486C58.5747 45.0473 60.5662 53.6795 65.0226 60.052C69.4953 66.4479 76.4261 70.528 86.1833 70.528C95.941 70.528 102.83 66.4473 107.259 60.0501C111.672 53.6772 113.62 45.0453 113.62 35.9486C113.62 26.8518 111.672 18.2199 107.259 11.847C102.83 5.44978 95.941 1.36914 86.1833 1.36914C76.4261 1.36914 69.4953 5.44923 65.0226 11.8451C60.5662 18.2177 58.5747 26.8498 58.5747 35.9486ZM104.1 35.9486C104.1 43.0363 102.689 49.4719 99.7352 54.1185C96.7969 58.7403 92.3245 61.6105 86.0973 61.6105C79.87 61.6105 75.3976 58.7403 72.4593 54.1185C69.5053 49.4719 68.0946 43.0363 68.0946 35.9486C68.0946 28.8609 69.5053 22.4252 72.4593 17.7786C75.3976 13.1568 79.87 10.2866 86.0973 10.2866C92.3245 10.2866 96.7969 13.1568 99.7352 17.7786C102.689 22.4252 104.1 28.8609 104.1 35.9486Z" fill="#D0535B" stroke="#D0535B"/>
    <!-- Percentage symbol with adjusted spacing -->
    <path transform="translate(-3, 0)" d="M17.3231 71.541L16.8856 72.2925H17.7552H24.2877H24.5752L24.7199 72.044L65.4157 2.12848L65.8531 1.37695H64.9835H58.451H58.1635L58.0189 1.62542L17.3231 71.541ZM1.01221 21.1214C1.01221 26.4452 2.28612 31.3716 4.96164 34.9807C7.65094 38.6084 11.7296 40.8658 17.2256 40.8658C22.6789 40.8658 26.7353 38.6072 29.4128 34.9799C32.0767 31.3712 33.3506 26.4452 33.3506 21.1214C33.3506 15.7976 32.0767 10.8716 29.4128 7.26285C26.7353 3.63556 22.6789 1.37695 17.2256 1.37695C11.7296 1.37695 7.65094 3.63433 4.96164 7.26203C2.28612 10.8711 1.01221 15.7976 1.01221 21.1214ZM26.1712 21.1214C26.1712 24.9048 25.4086 28.2664 23.8978 30.6647C22.4011 33.0406 20.1692 34.4809 17.1373 34.4809C14.1523 34.4809 11.9419 33.0432 10.4549 30.666C8.95422 28.2671 8.19161 24.9047 8.19161 21.1214C8.19161 17.338 8.95422 13.9756 10.4549 11.5767C11.9419 9.19956 14.1523 7.76186 17.1373 7.76186C20.1692 7.76186 22.4011 9.20219 23.8978 11.5781C25.4086 13.9763 26.1712 17.3379 26.1712 21.1214ZM50.0944 51.9301C50.0944 57.1183 51.3006 62.0435 53.9413 65.6859C56.597 69.3489 60.677 71.6746 66.3077 71.6746C71.9814 71.6746 76.0623 69.3497 78.7077 65.6851C81.3376 62.042 82.521 57.1165 82.521 51.9301C82.521 46.7437 81.3376 41.8183 78.7077 38.1752C76.0623 34.5106 71.9814 32.1857 66.3077 32.1857C60.677 32.1857 56.597 34.5113 53.9413 38.1744C51.3006 41.8167 50.0944 46.7419 50.0944 51.9301ZM75.2533 51.9301C75.2533 55.3632 74.578 58.6392 73.1192 61.0388C71.6753 63.4139 69.466 64.9365 66.3077 64.9365C63.1493 64.9365 60.9401 63.4139 59.4962 61.0388C58.0374 58.6392 57.362 55.3632 57.362 51.9301C57.362 48.4971 58.0374 45.2211 59.4962 42.8214C60.9401 40.4463 63.1493 38.9237 66.3077 38.9237C69.466 38.9237 71.6753 40.4463 73.1192 42.8214C74.578 45.2211 75.2533 48.4971 75.2533 51.9301Z" fill="#D0535B" stroke="#D0535B"/>
</svg> 